<svg width="442" height="434" viewBox="0 0 442 434" fill="none" xmlns="http://www.w3.org/2000/svg">
<path d="M220.766 381.495C315.327 381.495 391.984 377.02 391.984 371.499C391.984 365.978 315.327 361.502 220.766 361.502C126.206 361.502 49.5488 365.978 49.5488 371.499C49.5488 377.02 126.206 381.495 220.766 381.495Z" fill="#F5F5F5"/>
<path d="M308.411 148.251L299.651 144.719C299.651 144.719 288.091 165.797 284.78 166.866C280.276 168.314 270.951 172.341 265.423 173.047C264.672 173.93 263.445 176.677 263.56 177.675C270.986 180.156 287.305 176.862 290.802 174.266C298.759 168.376 308.411 148.251 308.411 148.251Z" fill="#E58A7B"/>
<path d="M311.104 143.456C312.738 149.487 303.889 161.62 303.889 161.62L292.295 155.121C292.295 155.121 294.467 150.132 297.116 145.054C301.364 136.85 309.241 136.577 311.104 143.456Z" fill="#4169E1"/>
<path opacity="0.2" d="M311.104 143.456C312.738 149.487 303.889 161.62 303.889 161.62L292.295 155.121C292.295 155.121 294.467 150.132 297.116 145.054C301.364 136.85 309.241 136.577 311.104 143.456Z" fill="black"/>
<path opacity="0.2" d="M296.896 157.717L301.461 160.278L302.265 146.264C299.607 148.304 297.734 154.45 296.896 157.717Z" fill="black"/>
<path d="M303.474 138.917C303.474 138.917 294.449 158.998 299.713 196.387H335.274C335.839 190.929 333.967 164.296 340.74 138.581C336.839 137.819 332.892 137.314 328.924 137.071C323.892 136.78 318.847 136.78 313.815 137.071C310.327 137.425 306.87 138.042 303.474 138.917Z" fill="#4169E1"/>
<path opacity="0.2" d="M303.474 138.917C303.474 138.917 294.449 158.998 299.713 196.387H335.274C335.839 190.929 333.967 164.296 340.74 138.581C336.839 137.819 332.892 137.314 328.924 137.071C323.892 136.78 318.847 136.78 313.815 137.071C310.327 137.425 306.87 138.042 303.474 138.917Z" fill="black"/>
<g style="mix-blend-mode:multiply">
<path d="M295.227 372.293C295.174 373.247 308.658 374.015 325.339 374.015C342.02 374.015 355.602 373.247 355.655 372.293C355.708 371.34 342.232 370.58 325.542 370.58C308.852 370.58 295.288 371.349 295.227 372.293Z" fill="#E8ECF1"/>
</g>
<path d="M318.964 347.235L312.657 349.676L318.09 363.711L324.397 361.27L318.964 347.235Z" fill="#E58A7B"/>
<path d="M347.089 365.503H340.44L338.002 350.111H344.652L347.089 365.503Z" fill="#E58A7B"/>
<path d="M339.98 364.734H347.451C347.581 364.735 347.706 364.781 347.805 364.865C347.903 364.949 347.969 365.066 347.99 365.194L348.952 371.101C348.973 371.25 348.961 371.4 348.917 371.544C348.874 371.687 348.801 371.819 348.702 371.931C348.603 372.044 348.481 372.133 348.345 372.194C348.208 372.255 348.06 372.286 347.91 372.285C345.305 372.24 344.051 372.081 340.766 372.081C338.744 372.081 334.585 372.293 331.777 372.293C328.968 372.293 328.783 369.538 329.94 369.282C335.132 368.161 337.146 366.633 338.876 365.149C339.182 364.881 339.574 364.734 339.98 364.734Z" fill="#263238"/>
<path d="M317.904 362.456L324.968 360.39C325.094 360.354 325.229 360.363 325.349 360.414C325.47 360.466 325.569 360.557 325.631 360.672L328.28 365.971C328.341 366.105 328.373 366.251 328.372 366.399C328.371 366.547 328.338 366.693 328.275 366.827C328.212 366.96 328.12 367.079 328.007 367.173C327.893 367.268 327.76 367.337 327.617 367.375C325.048 368.081 323.326 368.514 320.111 369.45C317.895 370.095 315.634 371.145 313.444 371.843C311.925 372.329 308.358 372.346 306.512 372.346C303.783 372.346 303.174 369.468 304.349 369.335C307.307 369.008 307.704 369.159 309.338 368.337C312.011 367.169 314.434 365.496 316.473 363.41C316.858 362.971 317.351 362.642 317.904 362.456Z" fill="#263238"/>
<path d="M266.536 173.012L259.224 169.948L256.213 178.054C259.21 178.511 262.258 178.511 265.255 178.054L266.536 173.012Z" fill="#E58A7B"/>
<path d="M253.784 169.736L253.59 175.123L256.213 178.037L259.224 169.93L253.784 169.736Z" fill="#E58A7B"/>
<path d="M319.829 348.426L313.502 350.869L316.304 358.127L322.631 355.684L319.829 348.426Z" fill="#CF6F64"/>
<path d="M344.652 350.111H338.002L339.265 358.05H345.915L344.652 350.111Z" fill="#CF6F64"/>
<path opacity="0.2" d="M298.582 186.276C298.715 187.874 298.865 189.508 299.059 191.185L325.498 182.602C329.627 181.378 333.215 178.784 335.671 175.246C335.777 172.888 335.909 170.407 336.112 167.819C336.201 166.565 336.307 165.276 336.422 163.969C336.536 162.662 336.695 161.214 336.863 159.819L298.582 186.276Z" fill="black"/>
<path d="M307.219 157.311L306.335 157.205C306.857 152.79 310.15 149.311 313.621 149.399V150.282C310.583 150.22 307.687 153.355 307.219 157.311Z" fill="white"/>
<path d="M311.925 165.462H311.775V164.579C314.813 164.693 317.665 161.523 318.133 157.576L319.016 157.682C318.548 162 315.36 165.462 311.925 165.462Z" fill="white"/>
<path d="M328.43 120.054C327.185 124.92 325.719 133.83 328.924 137.071C328.924 137.071 326.681 142.007 317.648 142.007C309.391 142.007 313.815 137.071 313.815 137.071C319.308 135.782 319.405 131.773 318.681 127.976L328.43 120.054Z" fill="#E58A7B"/>
<path d="M324.456 123.287L318.69 127.976C318.868 128.848 318.972 129.735 318.999 130.625C320.685 132.303 324.067 128.055 324.412 125.883C324.587 125.028 324.602 124.147 324.456 123.287Z" fill="#CF6F64"/>
<path d="M308.773 119.993C309.174 120.688 309.714 121.293 310.36 121.77C311.006 122.248 311.743 122.586 312.526 122.766C314.645 123.234 315.705 121.282 315.122 119.322C314.601 117.555 312.861 115.18 310.707 115.586C310.245 115.681 309.813 115.886 309.447 116.182C309.08 116.478 308.79 116.858 308.601 117.29C308.412 117.721 308.328 118.192 308.358 118.662C308.388 119.132 308.53 119.589 308.773 119.993Z" fill="#CF6F64"/>
<path d="M312.279 104.424C308.976 105.934 307.81 119.057 311.961 120.999C316.111 122.942 318.531 101.554 312.279 104.424Z" fill="#263238"/>
<path d="M329.436 112.734C328.642 119.322 328.553 123.198 325.021 126.571C323.927 127.691 322.544 128.486 321.026 128.869C319.508 129.252 317.914 129.208 316.419 128.743C314.924 128.277 313.587 127.407 312.556 126.229C311.525 125.051 310.839 123.611 310.574 122.068C309.506 116.151 310.98 106.376 317.586 103.753C318.974 103.141 320.5 102.911 322.006 103.087C323.513 103.264 324.945 103.84 326.154 104.756C327.363 105.672 328.305 106.895 328.882 108.298C329.459 109.701 329.651 111.232 329.436 112.734Z" fill="#E58A7B"/>
<path d="M318.584 107.833C323.476 106.588 327.07 105.74 325.781 109.811C324.076 115.251 322.028 120.514 324.774 120.752C326.452 120.902 333.869 117.759 332.925 114.571C332.103 111.798 335.574 111.038 336.192 109.634C338.479 104.548 331.936 105.219 333.101 102.128C334.267 99.0375 327.803 94.0571 324.271 96.5385C318.522 100.548 308.658 100.486 313.842 93.8893C317.559 89.1825 310.927 90.1451 310.927 90.1451C310.927 90.1451 314.937 92.5205 308.19 96.1941C301.055 100.115 307.598 110.65 318.584 107.833Z" fill="#263238"/>
<path d="M332.033 119.993C331.067 121.39 329.616 122.379 327.962 122.766C325.781 123.234 324.942 121.282 325.763 119.322C326.496 117.555 328.509 115.18 330.593 115.586C332.677 115.992 333.154 118.262 332.033 119.993Z" fill="#E58A7B"/>
<path d="M299.713 196.387C299.713 196.387 293.743 249.812 293.275 270.087C292.798 291.175 313.506 356.972 313.506 356.972L324.103 352.557C324.103 352.557 311.74 292.438 313.506 271.73C315.378 249.15 323.114 196.422 323.114 196.422L299.713 196.387Z" fill="#4169E1"/>
<path opacity="0.2" d="M314.548 211.055C309.788 220.927 312.994 240.452 315.572 252.02C316.553 243.852 317.718 234.986 318.822 226.782C318.716 214.172 317.736 204.432 314.548 211.055Z" fill="black"/>
<path d="M323.635 349.06C323.688 349.06 324.889 352.433 324.889 352.433L312.667 357.573L310.742 353.987L323.635 349.06Z" fill="#4169E1"/>
<path d="M312.332 196.387C312.332 196.387 316.897 247.198 319.917 266.228C323.237 287.078 336.254 356.513 336.254 356.513H348.431C348.431 356.513 341.137 288.764 339.76 268.118C338.258 245.724 335.274 196.387 335.274 196.387H312.332Z" fill="#4169E1"/>
<path d="M348.617 353.343C348.67 353.343 349.023 356.743 349.023 356.743H335.636L334.682 352.839L348.617 353.343Z" fill="#4169E1"/>
<path opacity="0.2" d="M343.954 349.316C343.926 349.316 343.9 349.307 343.879 349.289C343.857 349.271 343.844 349.246 343.839 349.219C343.769 348.601 337.19 287.404 335.954 268.86C334.611 248.744 331.909 204.122 331.883 203.672C331.881 203.657 331.883 203.643 331.888 203.629C331.893 203.615 331.9 203.602 331.91 203.591C331.92 203.58 331.932 203.572 331.946 203.566C331.959 203.56 331.974 203.557 331.989 203.557C332.018 203.557 332.045 203.568 332.067 203.588C332.088 203.607 332.101 203.634 332.103 203.663C332.103 204.113 334.832 248.699 336.174 268.851C337.411 287.395 343.989 348.548 344.051 349.21C344.054 349.225 344.053 349.24 344.05 349.254C344.046 349.268 344.039 349.282 344.03 349.293C344.021 349.305 344.009 349.315 343.996 349.322C343.983 349.328 343.969 349.333 343.954 349.334V349.316Z" fill="black"/>
<path d="M319.334 114.571C319.334 115.109 318.999 115.542 318.645 115.542C318.292 115.542 318.036 115.109 318.071 114.571C318.107 114.032 318.407 113.599 318.76 113.599C319.113 113.599 319.37 114.041 319.334 114.571Z" fill="#263238"/>
<path d="M313.276 114.571C313.276 115.109 312.932 115.542 312.588 115.542C312.243 115.542 311.978 115.109 312.005 114.571C312.031 114.032 312.349 113.599 312.702 113.599C313.056 113.599 313.312 114.041 313.276 114.571Z" fill="#263238"/>
<path d="M315.184 114.844C314.447 116.489 313.497 118.03 312.358 119.428C313.241 120.311 314.892 119.904 314.892 119.904L315.184 114.844Z" fill="#DF5753"/>
<path d="M315.343 122.156C315.322 122.156 315.302 122.152 315.283 122.144C315.264 122.136 315.247 122.124 315.233 122.109C315.219 122.094 315.208 122.077 315.201 122.057C315.194 122.038 315.191 122.018 315.193 121.997C315.195 121.954 315.214 121.914 315.245 121.884C315.276 121.855 315.317 121.838 315.36 121.838C316.036 121.843 316.704 121.696 317.315 121.409C317.926 121.122 318.465 120.701 318.893 120.178C318.923 120.151 318.962 120.137 319.003 120.137C319.044 120.137 319.083 120.151 319.113 120.178C319.142 120.208 319.158 120.247 319.158 120.289C319.158 120.33 319.142 120.369 319.113 120.399C318.656 120.955 318.08 121.401 317.427 121.705C316.775 122.009 316.063 122.163 315.343 122.156Z" fill="#263238"/>
<path d="M320.412 112.946C320.369 112.967 320.322 112.979 320.275 112.979C320.227 112.979 320.18 112.967 320.138 112.946C319.807 112.732 319.432 112.599 319.04 112.558C318.649 112.517 318.254 112.568 317.886 112.707C317.85 112.725 317.811 112.736 317.771 112.738C317.731 112.741 317.691 112.736 317.653 112.722C317.615 112.709 317.58 112.689 317.551 112.662C317.521 112.635 317.497 112.602 317.48 112.566C317.447 112.487 317.446 112.399 317.478 112.32C317.509 112.241 317.57 112.177 317.648 112.142C318.109 111.954 318.61 111.879 319.106 111.925C319.603 111.972 320.081 112.137 320.5 112.407C320.534 112.43 320.563 112.46 320.585 112.494C320.607 112.528 320.623 112.567 320.63 112.607C320.637 112.647 320.637 112.688 320.628 112.728C320.619 112.768 320.603 112.806 320.579 112.84C320.535 112.89 320.476 112.927 320.412 112.946Z" fill="#263238"/>
<path d="M310.936 111.18C310.889 111.168 310.846 111.144 310.813 111.109C310.783 111.08 310.76 111.046 310.744 111.008C310.728 110.97 310.72 110.929 310.72 110.888C310.72 110.847 310.728 110.807 310.744 110.769C310.76 110.731 310.783 110.696 310.813 110.668C311.151 110.288 311.573 109.992 312.044 109.802C312.516 109.612 313.025 109.533 313.532 109.573C313.573 109.579 313.612 109.593 313.647 109.615C313.682 109.637 313.711 109.666 313.735 109.7C313.758 109.734 313.774 109.772 313.782 109.813C313.789 109.853 313.789 109.895 313.78 109.935C313.761 110.016 313.713 110.088 313.644 110.137C313.576 110.186 313.492 110.208 313.409 110.2C313.008 110.174 312.606 110.241 312.234 110.394C311.862 110.547 311.53 110.782 311.263 111.083C311.223 111.127 311.171 111.16 311.113 111.177C311.056 111.194 310.994 111.195 310.936 111.18Z" fill="#263238"/>
<path d="M344.157 147.271L334.973 144.824C334.973 144.824 325.966 166.998 322.778 168.438C318.451 170.416 307.492 177.268 302.83 180.509C302.574 181.613 302.777 184.536 303.36 185.34C311.307 183.891 326.522 178.037 329.701 175.061C336.951 168.27 344.157 147.271 344.157 147.271Z" fill="#E58A7B"/>
<path d="M337.746 365.9C337.298 365.935 336.851 365.814 336.483 365.556C336.37 365.453 336.285 365.322 336.237 365.177C336.189 365.031 336.179 364.876 336.21 364.725C336.215 364.632 336.246 364.541 336.299 364.463C336.352 364.386 336.425 364.324 336.51 364.284C337.252 363.904 339.327 365.22 339.565 365.37C339.591 365.386 339.612 365.411 339.623 365.439C339.634 365.468 339.636 365.499 339.627 365.529C339.62 365.56 339.604 365.588 339.583 365.611C339.561 365.635 339.534 365.652 339.503 365.662C338.928 365.803 338.339 365.883 337.746 365.9ZM336.863 364.522C336.796 364.508 336.727 364.508 336.66 364.522C336.626 364.54 336.598 364.566 336.579 364.599C336.56 364.632 336.552 364.67 336.554 364.708C336.53 364.811 336.534 364.918 336.565 365.018C336.596 365.119 336.653 365.21 336.731 365.282C337.075 365.591 337.94 365.626 339.08 365.405C338.401 364.959 337.637 364.658 336.837 364.522H336.863Z" fill="#4169E1"/>
<path d="M339.459 365.662C339.436 365.669 339.412 365.669 339.389 365.662C338.726 365.291 337.481 363.834 337.667 363.092C337.694 362.974 337.761 362.869 337.855 362.794C337.95 362.719 338.067 362.677 338.188 362.677C338.306 362.661 338.427 362.671 338.541 362.706C338.655 362.741 338.761 362.8 338.85 362.88C339.583 363.507 339.627 365.432 339.627 365.529C339.631 365.558 339.626 365.588 339.611 365.613C339.597 365.639 339.575 365.659 339.548 365.67C339.518 365.676 339.487 365.673 339.459 365.662ZM338.276 362.968H338.214C338.011 362.968 337.985 363.083 337.976 363.127C337.87 363.56 338.656 364.664 339.309 365.185C339.306 364.439 339.075 363.711 338.647 363.101C338.544 363.011 338.412 362.964 338.276 362.968Z" fill="#4169E1"/>
<path d="M314.301 364.796C313.76 364.985 313.172 364.985 312.632 364.796C312.509 364.73 312.405 364.633 312.329 364.516C312.254 364.399 312.209 364.264 312.199 364.125C312.188 364.038 312.199 363.949 312.231 363.867C312.264 363.785 312.317 363.713 312.384 363.657C313.091 363.021 315.979 363.657 316.305 363.781C316.336 363.789 316.364 363.807 316.383 363.833C316.402 363.858 316.412 363.89 316.411 363.922C316.413 363.955 316.404 363.988 316.387 364.016C316.37 364.044 316.344 364.067 316.314 364.081C315.664 364.374 314.99 364.614 314.301 364.796ZM312.861 363.745C312.76 363.766 312.666 363.811 312.588 363.878C312.559 363.899 312.538 363.927 312.525 363.96C312.513 363.993 312.51 364.029 312.517 364.063C312.523 364.156 312.552 364.246 312.601 364.324C312.65 364.403 312.719 364.468 312.8 364.514C313.268 364.761 314.354 364.567 315.758 363.975C314.812 363.736 313.833 363.659 312.861 363.745Z" fill="#4169E1"/>
<path d="M316.288 364.081H316.217C315.334 363.922 313.568 362.906 313.515 362.147C313.515 361.97 313.594 361.723 314.018 361.582C314.161 361.531 314.313 361.509 314.465 361.518C314.617 361.527 314.765 361.567 314.901 361.635C315.855 362.103 316.358 363.798 316.385 363.878C316.391 363.905 316.39 363.932 316.382 363.959C316.375 363.985 316.36 364.009 316.341 364.028C316.327 364.05 316.309 364.068 316.288 364.081ZM314.195 361.847H314.106C313.833 361.944 313.833 362.059 313.833 362.094C313.833 362.553 315.113 363.392 316.005 363.675C315.8 362.965 315.365 362.344 314.769 361.909C314.591 361.818 314.387 361.796 314.195 361.847Z" fill="#4169E1"/>
<path d="M303.58 179.988L294.37 184.227L293.301 186.876L296.701 189.163C296.701 189.163 303.059 188.475 304.87 184.386L303.58 179.988Z" fill="#E58A7B"/>
<path d="M303.969 185.49C303.763 183.72 303.179 182.015 302.256 180.491L303.713 179.396C304.809 181.152 305.508 183.126 305.762 185.181L303.969 185.49Z" fill="#263238"/>
<path d="M305.541 181.242C305.735 181.548 305.831 181.907 305.815 182.27C305.798 182.632 305.671 182.981 305.449 183.268C305.227 183.556 304.923 183.768 304.576 183.876C304.23 183.984 303.858 183.983 303.513 183.872C303.167 183.762 302.864 183.547 302.644 183.258C302.425 182.969 302.299 182.62 302.286 182.257C302.272 181.894 302.37 181.536 302.567 181.231C302.764 180.927 303.05 180.69 303.386 180.553C303.763 180.361 304.202 180.326 304.605 180.454C305.009 180.583 305.345 180.867 305.541 181.242Z" fill="#263238"/>
<path d="M288.144 187.653L289.372 188.889L297.637 185.357L294.37 184.227L288.144 187.653Z" fill="#E58A7B"/>
<path opacity="0.2" d="M323.635 349.06C323.688 349.06 324.889 352.433 324.889 352.433L312.667 357.573L310.742 353.987L323.635 349.06Z" fill="black"/>
<path opacity="0.2" d="M348.617 353.343C348.67 353.343 349.023 356.743 349.023 356.743H335.636L334.682 352.839L348.617 353.343Z" fill="black"/>
<path d="M346.55 144.727C348.979 152.56 339.486 163.272 339.486 163.272L326.372 157.92C327.927 153.393 329.719 148.951 331.741 144.613C335.768 135.932 344.095 136.824 346.55 144.727Z" fill="#4169E1"/>
<path opacity="0.2" d="M346.55 144.727C348.979 152.56 339.486 163.272 339.486 163.272L326.372 157.92C327.927 153.393 329.719 148.951 331.741 144.613C335.768 135.932 344.095 136.824 346.55 144.727Z" fill="black"/>
<path d="M216.245 66.2493H210.602V67.1588H216.245V66.2493Z" fill="#4169E1"/>
<path d="M289.291 102.249L288.608 117.405L289.516 117.445L290.199 102.29L289.291 102.249Z" fill="#4169E1"/>
<path d="M287.535 70.3291H183.333L173.637 287.316H277.839L287.535 70.3291Z" fill="#4169E1"/>
<path opacity="0.56" d="M284.427 73.3137H180.225L170.529 290.301H274.731L284.427 73.3137Z" fill="#FAFAFA"/>
<path opacity="0.07" d="M281.318 76.2898H177.116L167.412 293.277H271.613L281.318 76.2898Z" fill="#4169E1"/>
<path d="M269.459 170.928H180.516L179.775 187.53H268.717L269.459 170.928Z" fill="white"/>
<path d="M229.429 158.812H181.055L180.728 166.239H229.103L229.429 158.812Z" fill="#4169E1"/>
<path d="M267.454 215.735H178.512L177.77 232.336H266.712L267.454 215.735Z" fill="white"/>
<path opacity="0.47" d="M251.144 254.757H191.334L190.442 274.653H250.252L251.144 254.757Z" fill="#4169E1"/>
<path d="M247.144 277.744H187.334C187.307 277.75 187.28 277.75 187.254 277.744C187.245 277.718 187.245 277.69 187.254 277.664L188.137 257.76C188.137 257.746 188.14 257.733 188.145 257.72C188.151 257.708 188.159 257.697 188.169 257.688C188.179 257.679 188.19 257.672 188.203 257.667C188.216 257.663 188.23 257.661 188.243 257.663H248.053C248.064 257.657 248.076 257.654 248.088 257.654C248.101 257.654 248.113 257.657 248.124 257.663C248.13 257.673 248.133 257.685 248.133 257.698C248.133 257.71 248.13 257.722 248.124 257.733L247.258 277.682C247.248 277.702 247.231 277.719 247.211 277.73C247.19 277.741 247.167 277.746 247.144 277.744ZM187.44 277.532H247.038L247.921 257.839H188.323L187.44 277.532Z" fill="white"/>
<path d="M218.983 203.619H179.05L178.724 211.054H218.647L218.983 203.619Z" fill="#4169E1"/>
<path d="M250.005 117.299C249.776 122.131 248.058 126.773 245.086 130.59C242.886 133.472 240.054 135.812 236.809 137.43C233.564 139.048 229.991 139.901 226.365 139.924C223.435 139.946 220.531 139.368 217.832 138.226C215.134 137.083 212.698 135.4 210.674 133.281C208.651 131.161 207.083 128.65 206.066 125.902C205.05 123.153 204.607 120.226 204.765 117.299C205.076 111.227 207.694 105.503 212.085 101.298C216.476 97.0927 222.308 94.7236 228.387 94.6752C231.32 94.6479 234.227 95.2222 236.929 96.3626C239.63 97.5031 242.07 99.1854 244.096 101.306C246.122 103.426 247.691 105.939 248.708 108.69C249.724 111.441 250.165 114.371 250.005 117.299Z" fill="white"/>
<path d="M252.133 99.4084C252.075 100.693 251.618 101.928 250.826 102.941C250.24 103.706 249.486 104.328 248.623 104.758C247.76 105.188 246.81 105.415 245.846 105.422C244.911 105.428 243.99 105.205 243.162 104.772C242.333 104.339 241.624 103.711 241.095 102.941C240.394 101.9 240.047 100.662 240.106 99.4084C240.191 97.7963 240.888 96.2774 242.055 95.1616C243.221 94.0458 244.77 93.417 246.384 93.4036C247.163 93.3964 247.935 93.5489 248.653 93.8515C249.37 94.1541 250.018 94.6004 250.557 95.163C251.096 95.7256 251.513 96.3925 251.784 97.1226C252.055 97.8528 252.174 98.6307 252.133 99.4084Z" fill="#4169E1"/>
<path d="M190.098 179.229C190.055 179.94 189.745 180.609 189.228 181.101C188.712 181.593 188.029 181.87 187.316 181.878C186.972 181.882 186.63 181.815 186.313 181.682C185.995 181.549 185.709 181.352 185.47 181.104C185.232 180.856 185.047 180.561 184.927 180.239C184.807 179.916 184.755 179.572 184.773 179.229C184.811 178.516 185.12 177.844 185.637 177.352C186.154 176.859 186.84 176.583 187.554 176.579C187.898 176.577 188.239 176.644 188.556 176.778C188.873 176.911 189.159 177.108 189.397 177.356C189.635 177.604 189.82 177.898 189.94 178.22C190.061 178.542 190.114 178.885 190.098 179.229Z" fill="#263238"/>
<path d="M202.001 179.229C201.961 179.941 201.651 180.611 201.134 181.103C200.618 181.595 199.933 181.872 199.22 181.878C198.876 181.881 198.536 181.813 198.219 181.68C197.903 181.546 197.617 181.349 197.38 181.101C197.142 180.853 196.958 180.559 196.839 180.237C196.719 179.915 196.667 179.572 196.685 179.229C196.723 178.517 197.032 177.847 197.547 177.355C198.062 176.862 198.746 176.585 199.458 176.58C199.802 176.575 200.144 176.642 200.461 176.775C200.778 176.908 201.065 177.105 201.304 177.353C201.542 177.601 201.727 177.896 201.847 178.219C201.967 178.541 202.019 178.885 202.001 179.229Z" fill="#263238"/>
<path d="M213.914 179.229C213.873 179.941 213.563 180.611 213.047 181.103C212.53 181.595 211.846 181.872 211.132 181.878C210.788 181.881 210.448 181.813 210.131 181.68C209.814 181.546 209.528 181.35 209.29 181.101C209.051 180.853 208.867 180.559 208.746 180.237C208.626 179.915 208.572 179.572 208.589 179.229C208.629 178.516 208.939 177.846 209.456 177.354C209.973 176.862 210.657 176.585 211.371 176.58C211.715 176.575 212.056 176.642 212.374 176.775C212.691 176.908 212.978 177.105 213.216 177.353C213.455 177.601 213.639 177.896 213.759 178.219C213.879 178.541 213.932 178.885 213.914 179.229Z" fill="#263238"/>
<path d="M188.093 224.036C188.051 224.747 187.74 225.416 187.224 225.908C186.708 226.399 186.024 226.677 185.311 226.685C184.968 226.688 184.627 226.62 184.31 226.487C183.993 226.353 183.707 226.156 183.469 225.908C183.231 225.66 183.046 225.366 182.925 225.044C182.805 224.722 182.751 224.379 182.768 224.036C182.808 223.323 183.118 222.653 183.635 222.161C184.152 221.669 184.836 221.392 185.55 221.386C185.894 221.383 186.234 221.451 186.551 221.584C186.868 221.718 187.154 221.915 187.392 222.163C187.63 222.411 187.815 222.705 187.936 223.027C188.056 223.349 188.11 223.692 188.093 224.036Z" fill="#263238"/>
<path d="M199.997 224.036C199.956 224.746 199.648 225.415 199.133 225.907C198.618 226.399 197.936 226.677 197.224 226.685C196.88 226.689 196.538 226.622 196.221 226.489C195.903 226.356 195.617 226.159 195.378 225.911C195.14 225.663 194.955 225.368 194.835 225.046C194.715 224.723 194.663 224.379 194.681 224.036C194.721 223.323 195.031 222.653 195.548 222.161C196.064 221.669 196.749 221.392 197.462 221.386C197.806 221.383 198.146 221.451 198.463 221.584C198.779 221.718 199.065 221.915 199.302 222.163C199.539 222.411 199.724 222.706 199.843 223.028C199.963 223.35 200.015 223.693 199.997 224.036Z" fill="#263238"/>
<path d="M211.936 224.035C211.895 224.748 211.585 225.418 211.069 225.91C210.552 226.402 209.868 226.679 209.154 226.685C208.811 226.686 208.47 226.618 208.154 226.484C207.838 226.35 207.552 226.153 207.314 225.905C207.077 225.658 206.892 225.364 206.771 225.043C206.65 224.721 206.595 224.378 206.611 224.035C206.653 223.324 206.964 222.655 207.48 222.163C207.996 221.671 208.68 221.394 209.393 221.386C209.737 221.382 210.078 221.449 210.396 221.582C210.713 221.715 211 221.912 211.238 222.16C211.476 222.408 211.661 222.703 211.781 223.025C211.901 223.348 211.954 223.692 211.936 224.035Z" fill="#263238"/>
<path d="M223.822 224.036C223.779 224.747 223.469 225.416 222.953 225.908C222.436 226.399 221.753 226.677 221.04 226.685C220.697 226.686 220.357 226.618 220.04 226.484C219.724 226.35 219.438 226.153 219.2 225.905C218.963 225.658 218.778 225.364 218.657 225.043C218.536 224.721 218.481 224.379 218.497 224.036C218.539 223.324 218.85 222.655 219.366 222.163C219.882 221.672 220.566 221.394 221.279 221.386C221.622 221.383 221.963 221.451 222.28 221.584C222.597 221.718 222.883 221.915 223.121 222.163C223.359 222.411 223.544 222.705 223.665 223.027C223.785 223.349 223.839 223.692 223.822 224.036Z" fill="#263238"/>
<path d="M235.779 224.036C235.736 224.747 235.426 225.416 234.909 225.908C234.393 226.399 233.71 226.677 232.997 226.685C232.653 226.689 232.311 226.622 231.994 226.489C231.676 226.356 231.39 226.159 231.151 225.911C230.913 225.663 230.728 225.368 230.608 225.046C230.488 224.723 230.436 224.379 230.454 224.036C230.494 223.323 230.804 222.653 231.321 222.161C231.837 221.669 232.522 221.392 233.235 221.386C233.579 221.383 233.92 221.451 234.237 221.584C234.554 221.718 234.84 221.915 235.078 222.163C235.316 222.411 235.501 222.705 235.621 223.027C235.742 223.349 235.795 223.692 235.779 224.036Z" fill="#263238"/>
<path d="M233.971 116.121C237.667 112.507 237.863 106.713 234.409 103.181C230.955 99.6486 225.159 99.7153 221.463 103.33C217.766 106.944 217.57 112.738 221.025 116.27C224.479 119.802 230.275 119.735 233.971 116.121Z" fill="#4169E1"/>
<path d="M245.086 130.589C242.886 133.472 240.054 135.812 236.809 137.43C233.564 139.048 229.991 139.901 226.365 139.923C222.849 139.953 219.379 139.117 216.262 137.49C213.145 135.862 210.477 133.492 208.492 130.589C212.784 126.315 219.574 123.525 227.098 123.525C234.622 123.525 241.174 126.315 245.086 130.589Z" fill="#4169E1"/>
<path opacity="0.1" d="M233.971 116.121C237.667 112.507 237.863 106.713 234.409 103.181C230.955 99.6486 225.159 99.7153 221.463 103.33C217.766 106.944 217.57 112.738 221.025 116.27C224.479 119.802 230.275 119.735 233.971 116.121Z" fill="white"/>
<path opacity="0.1" d="M245.086 130.589C242.886 133.472 240.054 135.812 236.809 137.43C233.564 139.048 229.991 139.901 226.365 139.923C222.849 139.953 219.379 139.117 216.262 137.49C213.145 135.862 210.477 133.492 208.492 130.589C212.784 126.315 219.574 123.525 227.098 123.525C234.622 123.525 241.174 126.315 245.086 130.589Z" fill="white"/>
<path d="M115.161 191.53C114.322 193.367 113.439 195.389 112.67 197.349C111.902 199.31 111.116 201.332 110.436 203.345C109.048 207.313 107.99 211.389 107.275 215.532L107.081 216.83C107.062 217.053 107.083 217.277 107.142 217.492C107.351 218.224 107.679 218.916 108.114 219.541C109.248 221.158 110.563 222.639 112.035 223.956C113.586 225.399 115.213 226.758 116.909 228.027C118.605 229.334 120.388 230.606 122.146 231.807L120.494 234.906C116.298 233.078 112.315 230.795 108.617 228.098C106.644 226.659 104.863 224.973 103.319 223.082C102.403 221.956 101.689 220.68 101.208 219.311C100.929 218.456 100.786 217.562 100.784 216.662C100.784 216.45 100.784 216.141 100.784 215.991V215.558L100.873 214.675C101.379 210.074 102.346 205.536 103.76 201.129C104.449 198.957 105.182 196.793 106.021 194.683C106.86 192.572 107.725 190.506 108.794 188.36L115.161 191.53Z" fill="#E58A7B"/>
<path d="M120.901 231.259L127.144 228.098L125.528 234.95C125.528 234.95 121.245 236.151 119.258 234.067L120.901 231.259Z" fill="#E58A7B"/>
<path d="M132.857 229.219L131.197 234.888L125.528 234.95L127.144 228.098L132.857 229.219Z" fill="#E58A7B"/>
<path d="M141.67 158.468C142.004 159.692 142.469 160.876 143.057 162C142.885 162.195 142.664 162.34 142.417 162.419C142.169 162.498 141.905 162.509 141.653 162.451L141.67 158.468Z" fill="#DF5753"/>
<path d="M141.485 158.521C141.851 158.521 142.147 158.066 142.147 157.506C142.147 156.945 141.851 156.49 141.485 156.49C141.119 156.49 140.822 156.945 140.822 157.506C140.822 158.066 141.119 158.521 141.485 158.521Z" fill="#263238"/>
<path d="M141.291 156.525L142.633 156.146C142.633 156.146 141.979 157.188 141.291 156.525Z" fill="#263238"/>
<path d="M124.424 164.95C125.228 169.056 126.031 176.589 123.152 179.335C123.152 179.335 124.283 183.503 131.921 183.503C140.319 183.503 135.93 179.335 135.93 179.335C131.347 178.24 131.462 174.84 132.266 171.643L124.424 164.95Z" fill="#E58A7B"/>
<path d="M122.19 155.589C122.614 162.451 122.649 165.365 126.111 168.888C131.33 174.187 139.666 172.173 141.299 165.356C142.774 159.174 141.838 149.002 135.118 146.273C133.643 145.665 132.037 145.444 130.453 145.63C128.868 145.816 127.357 146.403 126.063 147.336C124.769 148.268 123.734 149.516 123.056 150.96C122.378 152.404 122.08 153.998 122.19 155.589Z" fill="#E58A7B"/>
<path d="M122.87 147.871C119.426 149.125 114.834 148.189 116.635 158.812C118.543 170.063 115.611 173.763 115.611 173.763C115.611 173.763 128.672 176.544 142.006 173.595C142.006 173.595 137.935 166.477 139.074 161.232C140.531 154.609 139.383 152.163 139.383 152.163C139.383 152.163 127.709 146.105 122.87 147.871Z" fill="#263238"/>
<path d="M137.44 159.166C137.444 160.47 137.818 161.747 138.518 162.848C139.454 164.279 140.558 163.731 140.831 162.212C141.079 160.879 140.893 158.521 139.701 157.603C138.509 156.684 137.458 157.585 137.44 159.166Z" fill="#E58A7B"/>
<path d="M119.876 149.028C118.887 146.246 123.603 141.963 133.581 143.73C143.56 145.496 143.993 153.805 143.993 153.805L141.979 151.403L142.068 153.929L131.815 155.898L119.876 149.028Z" fill="#263238"/>
<path d="M120.724 179.803C120.665 179.4 120.766 178.989 121.005 178.659C121.244 178.329 121.603 178.106 122.004 178.037C125.113 177.524 132.177 176.482 135.727 176.977C138.376 177.348 139.065 178.884 139.18 180.147C139.198 180.368 139.168 180.591 139.093 180.799C139.018 181.008 138.899 181.198 138.744 181.357C138.59 181.516 138.403 181.64 138.196 181.721C137.989 181.802 137.768 181.837 137.546 181.825L122.199 181.136C121.837 181.118 121.492 180.975 121.224 180.732C120.955 180.489 120.778 180.161 120.724 179.803Z" fill="#4169E1"/>
<path opacity="0.6" d="M120.724 179.803C120.665 179.4 120.766 178.989 121.005 178.659C121.244 178.329 121.603 178.106 122.004 178.037C125.113 177.524 132.177 176.482 135.727 176.977C138.376 177.348 139.065 178.884 139.18 180.147C139.198 180.368 139.168 180.591 139.093 180.799C139.018 181.008 138.899 181.198 138.744 181.357C138.59 181.516 138.403 181.64 138.196 181.721C137.989 181.802 137.768 181.837 137.546 181.825L122.199 181.136C121.837 181.118 121.492 180.975 121.224 180.732C120.955 180.489 120.778 180.161 120.724 179.803Z" fill="black"/>
<path d="M129.599 334.074L135.295 338.031L144.823 325.111L139.127 321.164L129.599 334.074Z" fill="#E58A7B"/>
<path d="M116.317 333.818L122.331 337.245L130.764 323.584L124.751 320.157L116.317 333.818Z" fill="#E58A7B"/>
<path d="M144.814 325.111L139.904 331.77L134.208 327.822L139.118 321.164L144.814 325.111Z" fill="#CF6F64"/>
<path d="M124.742 320.157L130.764 323.592L126.42 330.63L120.397 327.195L124.742 320.157Z" fill="#CF6F64"/>
<path d="M134.403 222.932C134.403 222.932 156.638 250.952 152.461 277.753C149.097 299.397 129.581 328.705 129.581 328.705L120.406 324.149C126.873 311.19 132.392 297.779 136.919 284.022C138.315 279.751 138.723 275.219 138.111 270.767C137.499 266.316 135.884 262.061 133.387 258.325C122.119 241.874 104.069 251.667 116.211 222.932H134.403Z" fill="#4169E1"/>
<path opacity="0.6" d="M134.403 222.932C134.403 222.932 156.638 250.952 152.461 277.753C149.097 299.397 129.581 328.705 129.581 328.705L120.406 324.149C126.873 311.19 132.392 297.779 136.919 284.022C138.315 279.751 138.723 275.219 138.111 270.767C137.499 266.316 135.884 262.061 133.387 258.325C122.119 241.874 104.069 251.667 116.211 222.932H134.403Z" fill="black"/>
<path opacity="0.4" d="M145.308 240.929L142.076 237.714C142.076 237.97 148.337 276.622 150.095 287.484C151.132 284.311 151.926 281.064 152.47 277.77C154.537 264.621 150.218 251.19 145.308 240.929Z" fill="black"/>
<path d="M144.328 222.932C144.328 222.932 171.103 258.149 171.862 279.263C172.489 296.924 142.721 331.143 142.721 331.143L134.067 325.544C134.067 325.544 151.49 301.242 155.879 281.391C154.183 261.716 118.331 222.932 118.331 222.932H144.328Z" fill="#4169E1"/>
<path opacity="0.6" d="M144.328 222.932C144.328 222.932 171.103 258.149 171.862 279.263C172.489 296.924 142.721 331.143 142.721 331.143L134.067 325.544C134.067 325.544 151.49 301.242 155.879 281.391C154.183 261.716 118.331 222.932 118.331 222.932H144.328Z" fill="black"/>
<path d="M111.204 180.907C108.343 181.587 105.597 191.989 105.597 191.989L116.785 199.46C116.785 199.46 120.512 191.23 119.205 187.627C117.854 183.874 114.799 180.05 111.204 180.907Z" fill="#4169E1"/>
<path opacity="0.2" d="M113.394 187.609L112.617 196.678L116.777 199.469C117.925 196.883 118.775 194.175 119.311 191.397L113.394 187.609Z" fill="black"/>
<path d="M147.64 181.11C147.64 181.11 150.942 182.266 144.328 222.923H116.194C116.671 211.443 116.679 204.378 111.204 180.907C115.144 180.095 119.137 179.569 123.152 179.335C127.406 179.03 131.676 179.03 135.93 179.335C141.423 179.838 147.64 181.11 147.64 181.11Z" fill="#4169E1"/>
<path d="M150.501 187.609C151.137 189.375 151.808 191.274 152.514 193.102C153.221 194.93 153.892 196.811 154.607 198.665L156.771 204.211L157.318 205.597L157.601 206.286L157.733 206.63C157.733 206.692 157.733 206.692 157.733 206.683C157.572 206.456 157.36 206.269 157.115 206.136C156.766 205.93 156.372 205.812 155.967 205.791C155.631 205.781 155.296 205.844 154.987 205.977C154.581 206.162 154.581 206.242 154.589 206.233C154.663 206.174 154.728 206.106 154.784 206.03C155.273 205.388 155.696 204.699 156.047 203.972C156.462 203.16 156.859 202.295 157.256 201.42C158.033 199.654 158.749 197.826 159.464 195.981C160.179 194.135 160.859 192.272 161.522 190.391L163.535 184.757L166.935 185.64C166.264 189.667 165.398 193.587 164.356 197.579C163.853 199.566 163.261 201.535 162.59 203.522C162.254 204.52 161.884 205.509 161.46 206.524C161.018 207.627 160.474 208.685 159.835 209.686C159.6 210.023 159.34 210.341 159.058 210.639C158.607 211.127 158.06 211.514 157.451 211.779C156.91 212.011 156.325 212.119 155.737 212.097C155.079 212.072 154.438 211.881 153.874 211.54C153.209 211.125 152.657 210.552 152.267 209.871C152.135 209.642 152.02 209.412 151.94 209.244L151.773 208.909L151.437 208.22L150.766 206.851C149.883 205.014 149 203.16 148.231 201.297C147.463 199.433 146.651 197.544 145.891 195.645C145.132 193.746 144.452 191.848 143.807 189.799L150.501 187.609Z" fill="#E58A7B"/>
<path d="M147.64 181.11C151.022 181.913 154.828 191.91 154.828 191.91L144.77 200.467C144.77 200.467 138.262 189.57 139.577 185.975C140.946 182.231 143.224 180.059 147.64 181.11Z" fill="#4169E1"/>
<path d="M165.133 181.595L168.666 178.646L171.12 182.47L169.31 185.658C169.31 185.658 166.431 188.307 163.888 186.956C163.485 186.048 163.388 185.034 163.612 184.067C163.837 183.1 164.371 182.232 165.133 181.595Z" fill="#E58A7B"/>
<path d="M175.041 178.655L174.776 179.617L169.187 180.553L168.639 178.646L175.041 178.655Z" fill="#E58A7B"/>
<path d="M143.41 331.593L133.325 325.076L135.136 321.932L146.465 328.9L143.41 331.593Z" fill="#4169E1"/>
<path d="M126.278 336.785C125.394 336.677 124.543 336.376 123.788 335.902C123.757 335.892 123.73 335.871 123.711 335.844C123.692 335.817 123.681 335.785 123.681 335.752C123.681 335.719 123.692 335.687 123.711 335.66C123.73 335.633 123.757 335.613 123.788 335.602C124.062 335.514 126.437 334.781 127.126 335.346C127.204 335.41 127.262 335.494 127.297 335.589C127.331 335.684 127.339 335.786 127.32 335.885C127.308 336.044 127.255 336.197 127.167 336.33C127.079 336.463 126.959 336.571 126.817 336.644C126.652 336.734 126.467 336.783 126.278 336.785ZM124.292 335.814C125.395 336.379 126.278 336.582 126.702 336.37C126.795 336.319 126.872 336.245 126.928 336.156C126.984 336.066 127.015 335.964 127.02 335.858C127.02 335.717 127.02 335.655 126.941 335.62C126.57 335.32 125.245 335.549 124.274 335.814H124.292Z" fill="#263238"/>
<path d="M123.85 335.964C123.803 335.964 123.759 335.945 123.726 335.911C123.713 335.887 123.706 335.86 123.706 335.832C123.706 335.804 123.713 335.777 123.726 335.752C123.726 335.673 124.3 333.757 125.201 333.324C125.316 333.271 125.441 333.244 125.568 333.244C125.694 333.244 125.819 333.271 125.934 333.324C126.058 333.363 126.165 333.443 126.239 333.55C126.313 333.657 126.348 333.786 126.34 333.916C126.278 334.71 124.662 335.805 123.921 335.991L123.85 335.964ZM125.563 333.553C125.477 333.556 125.393 333.577 125.316 333.615C124.768 333.88 124.318 334.913 124.097 335.54C124.874 335.214 125.943 334.348 125.978 333.863C125.978 333.783 125.978 333.686 125.775 333.598C125.709 333.562 125.637 333.538 125.563 333.527V333.553Z" fill="#263238"/>
<path d="M138.88 340.6C137.882 340.6 136.495 339.32 135.736 338.534C135.717 338.507 135.706 338.474 135.706 338.441C135.706 338.408 135.717 338.375 135.736 338.348C135.753 338.32 135.778 338.297 135.808 338.281C135.837 338.266 135.87 338.258 135.904 338.26C136.257 338.26 139.321 338.719 139.754 339.585C139.8 339.662 139.824 339.751 139.824 339.841C139.824 339.931 139.8 340.019 139.754 340.097C139.689 340.232 139.591 340.348 139.469 340.434C139.347 340.521 139.205 340.575 139.056 340.591L138.88 340.6ZM136.319 338.658C137.432 339.735 138.412 340.335 138.968 340.265C139.065 340.252 139.158 340.216 139.238 340.159C139.318 340.102 139.383 340.026 139.427 339.938C139.447 339.908 139.458 339.872 139.458 339.836C139.458 339.8 139.447 339.765 139.427 339.735C139.198 339.258 137.564 338.852 136.319 338.658Z" fill="#263238"/>
<path d="M136.416 338.613C136.218 338.619 136.02 338.604 135.824 338.569C135.797 338.565 135.771 338.554 135.75 338.537C135.728 338.52 135.711 338.498 135.701 338.472C135.688 338.446 135.681 338.417 135.681 338.388C135.681 338.359 135.688 338.33 135.701 338.304C135.754 338.242 136.946 336.803 138.076 336.706C138.396 336.681 138.713 336.783 138.959 336.989C139.304 337.289 139.286 337.554 139.198 337.721C138.977 338.322 137.449 338.613 136.416 338.613ZM136.186 338.287C137.175 338.34 138.756 338.013 138.959 337.58C138.959 337.58 139.03 337.439 138.8 337.245C138.709 337.165 138.602 337.105 138.487 337.069C138.371 337.032 138.25 337.02 138.129 337.033C137.368 337.245 136.69 337.686 136.186 338.296V338.287Z" fill="#263238"/>
<path d="M124.088 335.011L116.6 332.891C116.471 332.852 116.332 332.862 116.21 332.919C116.088 332.976 115.991 333.076 115.938 333.2L113.412 338.878C113.353 339.024 113.325 339.18 113.33 339.337C113.336 339.494 113.374 339.648 113.444 339.789C113.513 339.93 113.611 340.055 113.732 340.155C113.853 340.255 113.994 340.329 114.145 340.371C116.794 341.06 118.066 341.254 121.36 342.199C123.391 342.764 126.287 343.815 129.087 344.609C131.886 345.404 132.822 342.676 131.736 342.093C126.826 339.497 126.437 337.677 125.095 335.735C124.855 335.383 124.498 335.127 124.088 335.011Z" fill="#4169E1"/>
<path d="M135.939 337.501L129.546 333.085C129.437 333.006 129.304 332.97 129.17 332.983C129.037 332.996 128.913 333.058 128.822 333.156L124.583 337.713C124.48 337.83 124.403 337.969 124.357 338.119C124.311 338.269 124.298 338.426 124.318 338.582C124.338 338.737 124.391 338.886 124.473 339.02C124.555 339.153 124.665 339.267 124.795 339.355C127.047 340.865 128.212 341.475 131.029 343.426C132.795 344.627 136.213 347.294 138.597 348.954C140.981 350.614 142.756 348.336 141.909 347.435C138.111 343.382 137.281 340.839 136.654 338.534C136.546 338.116 136.292 337.75 135.939 337.501Z" fill="#4169E1"/>
<path d="M130.756 329.288L119.232 323.557L120.424 320.431L132.734 326.471L130.756 329.288Z" fill="#4169E1"/>
<path d="M115.77 221.272L114.799 223.815C114.701 224.009 114.931 224.212 115.258 224.212H144.47C144.726 224.212 144.938 224.089 144.955 223.93L145.202 221.404C145.202 221.236 144.999 221.086 144.726 221.086H116.229C116.143 221.078 116.057 221.091 115.977 221.123C115.897 221.155 115.826 221.206 115.77 221.272Z" fill="#4169E1"/>
<path opacity="0.4" d="M115.77 221.272L114.799 223.815C114.701 224.009 114.931 224.212 115.258 224.212H144.47C144.726 224.212 144.938 224.089 144.955 223.93L145.202 221.404C145.202 221.236 144.999 221.086 144.726 221.086H116.229C116.143 221.078 116.057 221.091 115.977 221.123C115.897 221.155 115.826 221.206 115.77 221.272Z" fill="white"/>
<path d="M120.371 224.459H119.602C119.452 224.459 119.338 224.38 119.346 224.283L119.708 221.007C119.708 220.918 119.85 220.839 120 220.839H120.768C120.918 220.839 121.033 220.918 121.024 221.007L120.662 224.283C120.653 224.38 120.521 224.459 120.371 224.459Z" fill="#4169E1"/>
<path d="M138.385 224.459H137.626C137.476 224.459 137.361 224.38 137.37 224.283L137.723 221.007C137.723 220.918 137.873 220.839 138.023 220.839H138.783C138.933 220.839 139.056 220.918 139.039 221.007L138.685 224.283C138.641 224.38 138.544 224.459 138.385 224.459Z" fill="#4169E1"/>
<g style="mix-blend-mode:multiply">
<path d="M119.7 374.007C132.765 374.007 143.357 373.24 143.357 372.294C143.357 371.347 132.765 370.58 119.7 370.58C106.634 370.58 96.0422 371.347 96.0422 372.294C96.0422 373.24 106.634 374.007 119.7 374.007Z" fill="#F5F5F5"/>
</g>
<path d="M134.111 369.874C129.925 368.655 125.281 367.092 122.472 365.459C122.393 365.406 122.305 365.379 122.225 365.335V346.384H130.694C131.337 346.346 131.941 346.064 132.382 345.596C132.824 345.127 133.07 344.507 133.07 343.863C133.07 343.219 132.824 342.6 132.382 342.131C131.941 341.662 131.337 341.38 130.694 341.342H122.269V254.961H117.183V341.342H108.767C108.424 341.322 108.079 341.372 107.756 341.489C107.432 341.607 107.136 341.789 106.886 342.025C106.635 342.262 106.436 342.546 106.299 342.862C106.163 343.179 106.092 343.519 106.092 343.863C106.092 344.208 106.163 344.548 106.299 344.864C106.436 345.18 106.635 345.465 106.886 345.701C107.136 345.937 107.432 346.12 107.756 346.237C108.079 346.355 108.424 346.405 108.767 346.384H117.183V365.309C117.103 365.309 117.024 365.379 116.944 365.432C114.092 367.092 109.482 368.655 105.297 369.848C105.014 369.933 104.771 370.117 104.612 370.366C104.453 370.615 104.389 370.913 104.431 371.205C104.472 371.498 104.617 371.765 104.839 371.96C105.061 372.155 105.346 372.264 105.641 372.267H133.767C134.049 372.248 134.316 372.132 134.524 371.94C134.731 371.748 134.866 371.49 134.906 371.21C134.947 370.93 134.89 370.644 134.745 370.401C134.6 370.158 134.377 369.972 134.111 369.874Z" fill="#E0E0E0"/>
<path d="M135.409 246.165H104.007C101.481 246.165 99.4332 248.213 99.4332 250.74V260.074C99.4332 262.6 101.481 264.648 104.007 264.648H135.409C137.936 264.648 139.984 262.6 139.984 260.074V250.74C139.984 248.213 137.936 246.165 135.409 246.165Z" fill="#4169E1"/>
<path d="M103.716 264.657V266.264C103.716 267.589 105.155 268.666 106.922 268.666H132.531C134.297 268.666 135.736 267.589 135.736 266.264V264.657H103.716Z" fill="#4169E1"/>
<path opacity="0.3" d="M103.716 264.657V266.264C103.716 267.589 105.155 268.666 106.922 268.666H132.531C134.297 268.666 135.736 267.589 135.736 266.264V264.657H103.716Z" fill="white"/>
</svg>
