<svg width="49" height="49" viewBox="0 0 49 49" fill="none" xmlns="http://www.w3.org/2000/svg">
<path d="M27.4163 19.612C27.1043 19.612 26.8506 19.3587 26.8506 19.0463V18.085C26.8506 17.7729 27.1039 17.5193 27.4163 17.5193C27.7283 17.5193 27.982 17.7725 27.982 18.085V19.0463C27.982 19.3587 27.7284 19.612 27.4163 19.612Z" fill="#4169E1"/>
<path d="M25.0381 19.612C24.7261 19.612 24.4724 19.3587 24.4724 19.0463V18.085C24.4724 17.7729 24.7257 17.5193 25.0381 17.5193C25.3501 17.5193 25.6038 17.7725 25.6038 18.085V19.0463C25.6034 19.3587 25.3505 19.612 25.0381 19.612Z" fill="#4169E1"/>
<path d="M22.66 19.612C22.348 19.612 22.0944 19.3587 22.0944 19.0463V18.085C22.0944 17.7729 22.3476 17.5193 22.66 17.5193C22.9721 17.5193 23.2257 17.7725 23.2257 18.085V19.0463C23.2257 19.3587 22.9725 19.612 22.66 19.612Z" fill="#4169E1"/>
<path d="M27.4163 23.5432C27.1043 23.5432 26.8506 23.29 26.8506 22.9775V22.0166C26.8506 21.7046 27.1039 21.4509 27.4163 21.4509C27.7283 21.4509 27.982 21.7042 27.982 22.0166V22.9775C27.982 23.29 27.7284 23.5432 27.4163 23.5432Z" fill="#4169E1"/>
<path d="M25.0381 23.5432C24.7261 23.5432 24.4724 23.29 24.4724 22.9775V22.0166C24.4724 21.7046 24.7257 21.4509 25.0381 21.4509C25.3501 21.4509 25.6038 21.7042 25.6038 22.0166V22.9775C25.6034 23.29 25.3505 23.5432 25.0381 23.5432Z" fill="#4169E1"/>
<path d="M22.66 23.5432C22.348 23.5432 22.0944 23.29 22.0944 22.9775V22.0166C22.0944 21.7046 22.3476 21.4509 22.66 21.4509C22.9721 21.4509 23.2257 21.7042 23.2257 22.0166V22.9775C23.2257 23.29 22.9725 23.5432 22.66 23.5432Z" fill="#4169E1"/>
<path d="M27.4163 27.4745C27.1043 27.4745 26.8506 27.2213 26.8506 26.9088V25.9475C26.8506 25.6355 27.1039 25.3818 27.4163 25.3818C27.7283 25.3818 27.982 25.6351 27.982 25.9475V26.9088C27.982 27.2213 27.7284 27.4745 27.4163 27.4745Z" fill="#4169E1"/>
<path d="M25.0381 27.4745C24.7261 27.4745 24.4724 27.2213 24.4724 26.9088V25.9475C24.4724 25.6355 24.7257 25.3818 25.0381 25.3818C25.3501 25.3818 25.6038 25.6351 25.6038 25.9475V26.9088C25.6034 27.2213 25.3505 27.4745 25.0381 27.4745Z" fill="#4169E1"/>
<path d="M22.66 27.4745C22.348 27.4745 22.0944 27.2213 22.0944 26.9088V25.9475C22.0944 25.6355 22.3476 25.3818 22.66 25.3818C22.9721 25.3818 23.2257 25.6351 23.2257 25.9475V26.9088C23.2257 27.2213 22.9725 27.4745 22.66 27.4745Z" fill="#4169E1"/>
<path d="M27.4163 31.4049C27.1043 31.4049 26.8506 31.1517 26.8506 30.8392V29.8779C26.8506 29.5659 27.1039 29.3123 27.4163 29.3123C27.7283 29.3123 27.982 29.5655 27.982 29.8779V30.8392C27.982 31.1517 27.7284 31.4049 27.4163 31.4049Z" fill="#4169E1"/>
<path d="M25.0381 31.4049C24.7261 31.4049 24.4724 31.1517 24.4724 30.8392V29.8779C24.4724 29.5659 24.7257 29.3123 25.0381 29.3123C25.3501 29.3123 25.6038 29.5655 25.6038 29.8779V30.8392C25.6034 31.1517 25.3505 31.4049 25.0381 31.4049Z" fill="#4169E1"/>
<path d="M22.66 31.4049C22.348 31.4049 22.0944 31.1517 22.0944 30.8392V29.8779C22.0944 29.5659 22.3476 29.3123 22.66 29.3123C22.9721 29.3123 23.2257 29.5655 23.2257 29.8779V30.8392C23.2257 31.1517 22.9725 31.4049 22.66 31.4049Z" fill="#4169E1"/>
<path d="M27.4163 35.3359C27.1043 35.3359 26.8506 35.0827 26.8506 34.7703V33.8093C26.8506 33.4973 27.1039 33.2437 27.4163 33.2437C27.7283 33.2437 27.982 33.4969 27.982 33.8093V34.7703C27.982 35.0823 27.7284 35.3359 27.4163 35.3359Z" fill="#4169E1"/>
<path d="M25.0381 35.3359C24.7261 35.3359 24.4724 35.0827 24.4724 34.7703V33.8093C24.4724 33.4973 24.7257 33.2437 25.0381 33.2437C25.3501 33.2437 25.6038 33.4969 25.6038 33.8093V34.7703C25.6034 35.0823 25.3505 35.3359 25.0381 35.3359Z" fill="#4169E1"/>
<path d="M22.66 35.3359C22.348 35.3359 22.0944 35.0827 22.0944 34.7703L22.0948 33.8093C22.0948 33.4973 22.348 33.2437 22.6604 33.2437C22.9725 33.2437 23.2261 33.4969 23.2261 33.8093V34.7703C23.2257 35.0823 22.9725 35.3359 22.66 35.3359Z" fill="#4169E1"/>
<path d="M6.50047 39.2482C6.50047 39.5602 6.75372 39.8139 7.06615 39.8139H41.5139C41.8259 39.8139 42.0796 39.5606 42.0796 39.2482C42.0796 38.9362 41.8263 38.6825 41.5139 38.6825H40.4682V22.4412C40.4682 22.1292 40.215 21.8756 39.9025 21.8756L30.6668 21.876V10.1668C30.6668 9.96882 30.5635 9.78578 30.3946 9.68321C30.2262 9.58026 30.0156 9.57395 29.8404 9.66507L19.3401 15.1321C19.1527 15.2295 19.0359 15.4228 19.0359 15.6338V25.8615H8.87388C8.56186 25.8615 8.3082 26.1148 8.3082 26.4272V38.6826H7.06489C6.75287 38.6822 6.5 38.9355 6.5 39.2479L6.50047 39.2482ZM30.667 30.4433H39.3374V38.683L30.667 38.6826V30.4433ZM30.667 26.5124H39.3374V29.3124L30.667 29.312V26.5124ZM30.667 23.0067H39.3374V25.3819H30.667V23.0067ZM20.1667 15.9773L29.5353 11.0993V38.6821H20.1667V15.9773ZM12.2359 34.1646C12.2359 32.9906 13.166 32.0352 14.3096 32.0352C15.4531 32.0352 16.3837 32.9902 16.3837 34.1646V38.6828H12.2359V34.1646ZM9.43952 26.9927H19.0358V38.6826H17.515V34.1644C17.515 32.3667 16.0776 30.9041 14.3096 30.9041C12.5424 30.9041 11.105 32.3663 11.105 34.1644V38.6826H9.43952V26.9927Z" fill="#4169E1"/>
</svg>
