<svg width="48" height="49" viewBox="0 0 48 49" fill="none" xmlns="http://www.w3.org/2000/svg">
<path d="M28.3117 24.2457C28.0709 24.2457 27.8473 24.1795 27.6487 24.073V24.0758C27.6487 24.4547 27.5014 24.8105 27.2343 25.0769C26.9671 25.3441 26.6116 25.4913 26.2332 25.4913C25.9889 25.4913 25.7625 25.4235 25.5617 25.3142C25.5415 25.6607 25.4029 25.9847 25.1558 26.2321C24.8886 26.4992 24.5331 26.6465 24.1545 26.6465C23.4022 26.6465 22.7913 26.0551 22.7473 25.3139C22.5145 25.4397 22.2513 25.5057 21.9799 25.4883C21.2398 25.4397 20.6603 24.8003 20.6603 24.0323V17.6656L19.9353 18.9216C19.6592 19.4019 19.1423 19.7002 18.5858 19.7002C18.3147 19.7002 18.0468 19.6291 17.8095 19.4931C17.5141 19.3218 17.3028 19.0469 17.2149 18.718C17.1265 18.3888 17.1722 18.0446 17.3431 17.7496C17.3433 17.7496 19.715 13.6424 19.8597 13.3902C19.8769 13.3522 19.9259 13.2422 19.9676 13.1484C20.0075 13.0589 20.0416 12.967 20.0744 12.8747C20.7896 10.8554 22.5607 9.60106 24.6966 9.60106C27.4703 9.60106 29.7268 12.048 29.7268 15.0556L29.727 22.83C29.727 23.2084 29.58 23.5639 29.3131 23.8313C29.0459 24.0985 28.6904 24.2457 28.3116 24.2457L28.3117 24.2457ZM24.6966 10.3532C22.8613 10.3532 21.3984 11.3899 20.7833 13.1262C20.744 13.2365 20.703 13.3467 20.6552 13.4542C20.5164 13.7654 20.5164 13.7654 20.4773 13.8101L20.4721 13.8057C20.2784 14.1711 19.7031 15.1674 17.9943 18.1261C17.9241 18.2474 17.9055 18.3883 17.9413 18.5231C17.9776 18.6578 18.0645 18.7714 18.1849 18.8409C18.5586 19.0555 19.0703 18.917 19.2833 18.5459L20.7108 16.0745C20.7961 15.9272 20.9685 15.8549 21.1339 15.8997C21.2983 15.9437 21.4126 16.0928 21.4126 16.2629V24.0325C21.4126 24.3991 21.6892 24.7155 22.0292 24.7378C22.2252 24.7482 22.408 24.6825 22.5454 24.5453C22.6702 24.4205 22.739 24.2541 22.739 24.0763V18.9949C22.739 18.7871 22.9075 18.6186 23.1153 18.6186C23.3231 18.6186 23.4915 18.7869 23.4915 18.9949L23.4913 25.2313C23.4913 25.5969 23.7889 25.8945 24.1545 25.8945C24.3321 25.8945 24.499 25.8257 24.6241 25.7008C24.7489 25.5757 24.8177 25.4089 24.8177 25.2313V18.9949C24.8177 18.7871 24.9859 18.6186 25.194 18.6186C25.4018 18.6186 25.5702 18.7869 25.5702 18.9949L25.57 24.0178V24.0763C25.57 24.4417 25.8675 24.7392 26.2334 24.7392C26.4108 24.7392 26.5772 24.6702 26.703 24.5448C26.8278 24.4202 26.8966 24.2539 26.8966 24.076V18.9946C26.8966 18.7868 27.0649 18.6184 27.2729 18.6184C27.4807 18.6184 27.6491 18.7866 27.6491 18.9946L27.6487 22.8302C27.6487 23.1961 27.9462 23.4936 28.3116 23.4936C28.4895 23.4936 28.6558 23.4246 28.7807 23.3C28.906 23.1746 28.9746 23.0078 28.9746 22.8302L28.9748 15.0558C28.9748 12.4631 27.0557 10.3533 24.6966 10.3533L24.6966 10.3532Z" fill="#4169E1"/>
<path d="M13.5291 29.6491L18.9888 26.3738C19.6471 25.9785 20.4941 26.1464 20.9162 26.7564C21.0703 26.9786 21.149 27.2375 21.1613 27.5011C21.3648 27.3949 21.5863 27.3372 21.8117 27.3372C21.9272 27.3372 22.0431 27.3515 22.1576 27.38C22.5244 27.4717 22.8335 27.7009 23.0279 28.0251C23.2225 28.3497 23.2793 28.7302 23.1877 29.0966C23.1031 29.4356 22.8969 29.721 22.6102 29.9167C22.8107 30.035 22.9836 30.1964 23.1066 30.4018C23.3012 30.7265 23.358 31.1068 23.2666 31.4736C23.1749 31.84 22.9457 32.1491 22.621 32.3439L22.6192 32.3451C22.8161 32.4631 22.986 32.6229 23.1076 32.8253C23.3024 33.1499 23.3592 33.5304 23.2675 33.8972C23.1756 34.2638 22.9464 34.5729 22.6222 34.7675L15.9558 38.7668C14.7116 39.5129 13.2733 39.7705 11.9064 39.4913C10.5272 39.2095 9.38497 38.4168 8.69046 37.259C7.59138 35.4272 7.75609 33.263 9.11949 31.6112C9.18192 31.5358 9.24341 31.459 9.29925 31.3794C9.35839 31.2953 9.42742 31.1963 9.45098 31.1624C9.5921 30.9103 11.8949 26.7614 11.8946 26.7619C12.1272 26.3423 12.563 26.1048 13.0125 26.105C13.2222 26.105 13.4349 26.1566 13.6312 26.2655C13.8682 26.3979 14.0673 26.5908 14.2065 26.8234C14.4928 27.3005 14.5029 27.8975 14.2334 28.3806L13.5291 29.6491ZM13.5618 27.2101C13.4888 27.0883 13.3884 26.9913 13.2657 26.9225C13.012 26.7821 12.6925 26.8735 12.5528 27.1263C10.905 30.0948 10.3434 31.1065 10.1266 31.4665L10.1315 31.4676C10.1134 31.528 10.1134 31.528 9.91502 31.8114C9.84764 31.9073 9.77437 31.9994 9.69969 32.0901C8.52732 33.5105 8.39119 35.298 9.33521 36.872C9.91997 37.8469 10.8864 38.5153 12.0566 38.7542C13.2395 38.9947 14.4863 38.7709 15.5684 38.1216L22.2355 34.1222C22.3876 34.031 22.4951 33.8861 22.538 33.7143C22.5808 33.5428 22.5542 33.3645 22.4628 33.2123C22.2748 32.8989 21.8665 32.796 21.5532 32.9847L18.2642 34.9578C18.0861 35.0648 17.8548 35.0073 17.748 34.829C17.6411 34.6509 17.6988 34.4197 17.8769 34.3128L21.1661 32.3396L22.2343 31.6988C22.3865 31.6074 22.4941 31.4625 22.537 31.2912C22.5799 31.1195 22.5533 30.9409 22.4619 30.7889C22.2736 30.4753 21.8653 30.3733 21.5522 30.5613L17.1948 33.1753C17.0163 33.2825 16.7856 33.2245 16.6787 33.0464C16.5717 32.8683 16.6296 32.6372 16.8075 32.5302L22.1554 29.3221C22.3076 29.2307 22.415 29.0861 22.4579 28.9143C22.5007 28.7428 22.4741 28.5644 22.3829 28.4123C22.2918 28.2603 22.1469 28.1529 21.9751 28.11C21.8024 28.0671 21.6248 28.0937 21.4731 28.1847L20.4831 28.7786C20.4829 28.7786 20.4829 28.7788 20.4826 28.7788H20.4824L16.1252 31.3928C15.9467 31.5002 15.7158 31.4423 15.6091 31.2639C15.5021 31.0858 15.5601 30.8547 15.7379 30.7477L20.0953 28.1338C20.2475 28.0424 20.3552 27.8975 20.398 27.7262C20.4452 27.5382 20.4094 27.3459 20.2977 27.1848C20.104 26.9047 19.6898 26.8302 19.3758 27.0189L12.7136 31.0156C12.5678 31.1028 12.3809 31.0816 12.2587 30.9636C12.1362 30.8453 12.1086 30.6594 12.1911 30.5108L13.5764 28.0148C13.7154 27.7653 13.71 27.4572 13.5618 27.2102L13.5618 27.2101Z" fill="#4169E1"/>
<path d="M39.6181 37.2587C38.9238 38.4166 37.7819 39.2092 36.4025 39.491C35.0353 39.7697 33.5974 39.5127 32.353 38.7665L25.686 34.767C25.3616 34.5724 25.1321 34.2633 25.0402 33.8962C24.949 33.5299 25.006 33.1494 25.2004 32.8252C25.3217 32.6226 25.4918 32.4629 25.689 32.3448L25.6871 32.3436C25.3627 32.149 25.1333 31.8399 25.0419 31.4733C24.95 31.1067 25.007 30.726 25.2016 30.4014C25.3269 30.1929 25.4987 30.0298 25.6947 29.9142C25.4101 29.7184 25.2051 29.434 25.1208 29.0966C25.0289 28.7298 25.0859 28.3493 25.2805 28.0251C25.4749 27.7007 25.7842 27.4714 26.1508 27.3798C26.2653 27.3511 26.3815 27.3369 26.4965 27.3369C26.7222 27.3372 26.9436 27.3944 27.1472 27.5009C27.1597 27.2373 27.2381 26.9784 27.3922 26.7562C27.8146 26.1467 28.6609 25.978 29.3201 26.3736L34.7796 29.6484L34.0759 28.3808C33.8059 27.8969 33.8158 27.2999 34.1021 26.8226C34.2415 26.5903 34.4408 26.3973 34.679 26.2637C34.8748 26.1554 35.0869 26.104 35.296 26.104C35.7453 26.1043 36.1817 26.3413 36.4139 26.7609C37.2235 28.2195 38.7511 30.9703 38.8585 31.1624C38.8813 31.1956 38.9504 31.2945 39.0095 31.3786C39.0658 31.4585 39.1266 31.5348 39.1895 31.6107C40.5527 33.2632 40.7171 35.4271 39.6181 37.2587L39.6181 37.2587ZM38.6091 32.0902C38.5341 31.9995 38.4606 31.9069 38.3937 31.8115C38.1902 31.5226 38.185 31.5151 38.1697 31.4394C37.9317 31.0458 37.3512 30.0007 35.7555 27.1259C35.6156 26.8735 35.2975 26.7814 35.0443 26.9214C34.9196 26.9911 34.8195 27.0884 34.7465 27.2102C34.5985 27.4569 34.5928 27.765 34.7326 28.0153L36.1174 30.5105C36.2001 30.6594 36.1725 30.845 36.0503 30.9633C35.9282 31.0818 35.7416 31.1025 35.5951 31.0154L28.9329 27.0187C28.6189 26.8304 28.2049 26.9042 28.0108 27.1845C27.8991 27.3457 27.8635 27.5379 27.9102 27.7257C27.9531 27.8972 28.0607 28.0419 28.2132 28.1333C28.2136 28.1335 28.2139 28.134 28.2143 28.1342L32.5703 30.7475C32.7484 30.8544 32.8062 31.0853 32.6992 31.2637C32.5922 31.4415 32.3616 31.4997 32.183 31.3925L26.8352 28.1844C26.6834 28.0935 26.5048 28.0666 26.3333 28.1097C26.1613 28.1526 26.0167 28.26 25.9255 28.4125C25.8341 28.5644 25.8077 28.7428 25.8501 28.9143C25.893 29.0858 26.0007 29.2307 26.1529 29.3221L27.1935 29.9462L31.5005 32.5303C31.6786 32.6372 31.7363 32.8681 31.6293 33.0465C31.5224 33.2244 31.2917 33.2823 31.1131 33.1753L26.7562 30.5614C26.4429 30.3729 26.0348 30.4752 25.8464 30.789C25.755 30.9412 25.7286 31.1195 25.771 31.291C25.8139 31.4625 25.9215 31.6072 26.0739 31.6988L27.1422 32.3397L30.4308 34.3128C30.609 34.4198 30.6667 34.6507 30.5597 34.829C30.4528 35.0069 30.2221 35.0653 30.0435 34.9579L26.7548 32.9847C26.6031 32.8938 26.4252 32.8669 26.2528 32.91C26.0813 32.9529 25.9361 33.0604 25.845 33.2123C25.7538 33.3645 25.7272 33.5431 25.7696 33.7144C25.8124 33.8859 25.9201 34.0306 26.0725 34.1222L32.7395 38.1217C33.8214 38.7708 35.0691 38.9955 36.2514 38.7542C37.4213 38.5153 38.3878 37.8469 38.9725 36.872C39.9175 35.2978 39.7816 33.5101 38.6095 32.0901L38.6091 32.0902Z" fill="#4169E1"/>
</svg>
