<svg width="48" height="49" viewBox="0 0 48 49" fill="none" xmlns="http://www.w3.org/2000/svg">
<path d="M23.99 10.6011C20.4188 10.6011 17.5114 13.535 17.5114 17.1214C17.5114 19.3902 18.6765 21.3935 20.4358 22.5612C18.3109 23.2717 16.4723 24.5996 15.1238 26.3368C14.3782 25.7633 13.5451 25.3021 12.6471 24.9716C14.0089 23.9605 14.8989 22.3364 14.8989 20.5111C14.8989 17.4693 12.4388 14.9793 9.41548 14.9793C6.39216 14.9793 3.93209 17.4693 3.93209 20.5111C3.93209 22.3375 4.82278 23.9623 6.18579 24.9734C2.57721 26.305 8.58307e-06 29.7913 8.58307e-06 33.8943V36.7765C0.00037793 36.9962 0.0882653 37.2067 0.244097 37.3614C0.399928 37.5165 0.610788 37.6029 0.830505 37.6022H13.4755C13.5061 37.6055 13.5368 37.6074 13.5674 37.607H34.4133C34.4439 37.6074 34.4749 37.6055 34.5052 37.6022H47.1511C47.6057 37.6004 47.9739 37.2315 47.975 36.7765V33.8943C47.975 29.7913 45.4022 26.305 41.7955 24.973C43.1585 23.9623 44.0492 22.3371 44.0492 20.5107C44.0492 17.4689 41.5892 14.9789 38.5658 14.9789C35.5426 14.9789 33.0825 17.4689 33.0825 20.5107C33.0825 22.336 33.9728 23.9604 35.3346 24.9712C34.4347 25.3024 33.6013 25.7651 32.8546 26.3401C31.5067 24.6019 29.6707 23.2721 27.5459 22.5612C29.3048 21.3935 30.4703 19.3902 30.4703 17.1214C30.4703 13.535 27.5614 10.6011 23.9902 10.6011H23.99ZM23.99 12.2554C26.661 12.2554 28.8142 14.4231 28.8142 17.1214C28.8142 19.7986 26.6945 21.9452 24.0531 21.9796C24.0321 21.9796 24.0114 21.9767 23.99 21.9767C23.9686 21.9767 23.9483 21.9796 23.9268 21.9796C21.2855 21.9457 19.1672 19.7987 19.1672 17.1214C19.1672 14.4227 21.3186 12.2554 23.9896 12.2554H23.99ZM9.41557 16.6335C11.5349 16.6335 13.2446 18.3536 13.2446 20.511C13.2446 22.6539 11.557 24.3666 9.45764 24.3898C9.44361 24.3898 9.42994 24.3883 9.41554 24.3883C9.40151 24.3883 9.38785 24.3898 9.37345 24.3898C7.27411 24.3665 5.58648 22.6535 5.58648 20.511C5.58648 18.3537 7.29623 16.6335 9.41551 16.6335H9.41557ZM38.5654 16.6335C40.6846 16.6335 42.3944 18.3536 42.3944 20.511C42.3944 22.6539 40.7067 24.3666 38.6074 24.3898C38.5934 24.3898 38.5797 24.3883 38.5653 24.3883C38.5513 24.3883 38.5376 24.3898 38.5232 24.3898C36.4239 24.3665 34.7363 22.6535 34.7363 20.511C34.7363 18.3537 36.446 16.6335 38.5653 16.6335H38.5654ZM23.9267 23.6339C23.9477 23.6343 23.9684 23.6369 23.9898 23.6369C24.0108 23.6369 24.0315 23.6339 24.0529 23.6339C29.3502 23.6679 33.5896 27.9438 33.5896 33.2963L33.5892 35.9522H14.3911V33.2963C14.3911 27.9433 18.6293 23.6679 23.9259 23.6339H23.9267ZM9.35223 26.0461C9.37328 26.0464 9.39396 26.049 9.41538 26.049C9.4368 26.049 9.45711 26.0461 9.47853 26.0461C11.2702 26.0605 12.9054 26.6783 14.2074 27.7119C13.2757 29.3604 12.7369 31.2631 12.7369 33.2968V35.9463H1.6537V33.8942C1.6537 29.5441 5.07396 26.08 9.35204 26.0457L9.35223 26.0461ZM38.502 26.0461C38.5234 26.0464 38.5437 26.049 38.5652 26.049C38.5866 26.049 38.6069 26.0461 38.6283 26.0461C42.9064 26.08 46.3266 29.5446 46.3266 33.8946V35.9463H35.2377L35.2374 33.2968C35.2374 31.2643 34.7001 29.3629 33.7702 27.7148C35.0726 26.6797 36.7089 26.0604 38.5021 26.0461H38.502Z" fill="#4169E1"/>
</svg>
