<svg width="86" height="179" viewBox="0 0 86 179" fill="none" xmlns="http://www.w3.org/2000/svg">
<path opacity="0.8" d="M85.9669 3.05608V126.897C85.9122 127.929 85.614 128.934 85.0964 129.83C84.5789 130.725 83.8568 131.485 82.9891 132.048L3.81965 177.768C3.51432 177.957 3.16211 178.055 2.80335 178.053C2.67844 178.068 2.55223 178.068 2.42732 178.053C2.33913 178.033 2.25377 178.002 2.17325 177.961L2.01064 177.88L1.83787 177.758C1.77908 177.716 1.7246 177.669 1.67526 177.616C1.44189 177.394 1.25529 177.128 1.12647 176.834C0.918745 176.359 0.811463 175.847 0.811401 175.33V52.0986C0.870034 51.067 1.17001 50.0635 1.68718 49.1688C2.20436 48.2742 2.92432 47.5133 3.78916 46.9475L82.9586 1.31871C83.2501 1.1119 83.5883 0.980467 83.943 0.936145C84.2977 0.891824 84.6578 0.935993 84.9912 1.06471C85.0803 1.10791 85.1653 1.15891 85.2453 1.21711C85.507 1.44113 85.7097 1.72598 85.8355 2.04663C85.9613 2.36728 86.0064 2.71392 85.9669 3.05608Z" fill="#455A64"/>
</svg>
